# xmcd
# 
# Track frame offsets:
#     150
#     16035
#     28252
#     41945
#     61100
#     74757
#     96357
#     112612
#     128640
#     142555
#     164177
# 
# Disc length: 2405
# 
# Revision: 0
# Processed by: cddbd v1.5.2PL0 Copyright (c) Steve Scherf et al.
# Submitted via: fre:ac v1.1beta1pre3
# 
DISCID=9209630b
DTITLE=Merle Haggard - His Epic Hits: The First 11 ( To Be Continued... )
DYEAR=1984
DGENRE=Country
TTITLE0=Reasons to Quit Featuring Willie Nelson
TTITLE1=You Take Me For Granted
TTITLE2=That's The Way Love Goes
TTITLE3=Are the Good Times Really Over ( I Wish A Buck Was Still Silver )
TTITLE4=Big City
TTITLE5=Pancho And Lefty Featuring Willie Nelson
TTITLE6=Someday When Things Are Good
TTITLE7=What Am I Gonna Do ( With The Rest Of My Life 
TTITLE8=My Favorite Memory
TTITLE9=Going Where The Lonely Go
TTITLE10=C. C. Waterback Featuring George Jones
EXTD=
EXTT0=
EXTT1=
EXTT2=
EXTT3=I Wish a Buck Was Still Silver
EXTT4=
EXTT5=
EXTT6=
EXTT7=With The Rest Of My Life
EXTT8=
EXTT9=
EXTT10=
PLAYORDER=
